Coordinates
version=1
nRows=12
nColumns=34
inDegrees=yes

Units are S.I. units (second, meters, Newtons, ...)
If the header above contains a line with 'inDegrees', this indicates whether rotational values are in degrees (yes) or radians (no).

endheader
time	pelvis_tilt	pelvis_list	pelvis_rotation	pelvis_tx	pelvis_ty	pelvis_tz	hip_flexion_r	hip_adduction_r	hip_rotation_r	knee_angle_r	ankle_angle_r	subtalar_angle_r	mtp_angle_r	hip_flexion_l	hip_adduction_l	hip_rotation_l	knee_angle_l	ankle_angle_l	subtalar_angle_l	mtp_angle_l	lumbar_extension	lumbar_bending	lumbar_rotation	arm_flex_r	arm_add_r	arm_rot_r	elbow_flex_r	pro_sup_r	arm_flex_l	arm_add_l	arm_rot_l	elbow_flex_l	pro_sup_l
      2.63333330	      2.35718162	     -2.78673505	      0.67636173	      0.59481083	      0.90723447	     -0.24790963	     19.45840292	     -8.13231036	      2.73818378	     40.79638035	    -16.90560111	    -34.07232795	      0.00000000	      7.12076529	      6.08378884	      9.06672288	     22.18576633	     10.82900422	    -16.90153209	      0.00000000	     -9.25182027	      0.81540252	      5.45917805	     35.46402009	     13.87184766	     47.15336615	    127.27258652	    115.96457776	     56.90392283	     26.28957229	     75.16953864	    121.51458210	    103.89202441
      2.65000000	      2.42763113	     -2.89334044	      0.74435935	      0.59126351	      0.90699459	     -0.24914819	     21.21628451	     -8.00028059	      2.67911621	     43.40883264	    -18.30530829	    -34.92929235	      0.00000000	      7.10600436	      6.10057351	      9.00749156	     21.92354541	     10.80773878	    -16.98067768	      0.00000000	     -9.81339570	      0.88049460	      5.17998703	     35.71193440	     14.10892459	     47.02946534	    127.45519327	    115.97818618	     57.15511817	     26.06163839	     74.93586744	    121.50977716	    103.95422100
      2.66666670	      1.96829524	     -2.98549197	      1.19981117	      0.58617913	      0.90570352	     -0.25163816	     23.30468589	     -7.91881147	      2.53327156	     45.44716301	    -18.65645018	    -35.00000000	      0.00000000	      7.95536449	      6.24043137	      9.29102112	     22.13282004	     10.83147295	    -17.03166105	      0.00000000	     -9.83546372	      0.96857636	      5.04168651	     35.68155721	     14.15877494	     47.22796197	    128.11352011	    116.00683708	     57.14318956	     26.21554597	     74.98320442	    121.69360447	    104.07522199
      2.68333330	      1.92536762	     -3.19121411	      1.55454816	      0.58446430	      0.90818194	     -0.25343325	     24.52615419	     -7.65247892	      2.25236846	     46.53276766	    -18.70598667	    -35.00000000	      0.00000000	      8.09031648	      6.14975823	      9.46132585	     21.96737453	     10.58000204	    -16.80827769	      0.00000000	    -10.45834443	      1.20106119	      5.00043683	     35.95357429	     14.34664843	     46.98459352	    128.19145195	    116.00101256	     57.06713691	     26.51727708	     74.88391131	    121.74404859	    104.09763556
      2.70000000	      1.83812864	     -3.41383789	      1.78130861	      0.58133388	      0.91182543	     -0.25470679	     25.48637176	     -7.22295013	      1.95331808	     46.94797004	    -18.68034519	    -35.00000000	      0.00000000	      8.19170866	      5.99331632	      9.49108690	     21.65485869	     10.23026841	    -16.57858351	      0.00000000	    -10.77722076	      1.33930269	      4.93727536	     36.21836799	     14.46833827	     46.97193010	    128.28309882	    116.00477605	     56.94612868	     26.64657310	     75.04485127	    121.75675602	    104.13464678
      2.71666670	      1.88958328	     -3.44090828	      2.03904494	      0.58011115	      0.90986922	     -0.25595427	     26.13121683	     -6.93119529	      1.77166787	     46.64848299	    -18.59218739	    -35.00000000	      0.00000000	      8.15921356	      6.03494660	      9.43359538	     21.44540495	     10.23098036	    -16.57719567	      0.00000000	    -11.12871136	      1.27966026	      4.94005594	     36.22932929	     14.44331089	     46.96420716	    128.23925241	    116.00536832	     56.94489228	     26.61603714	     75.02393574	    121.73667637	    104.13539955
      2.73333330	      1.71551689	     -3.71910503	      2.20568655	      0.57791721	      0.91219464	     -0.25702520	     26.64657795	     -6.44770030	      1.25584905	     45.46616406	    -17.23180776	    -35.00000000	      0.00000000	      8.41122398	      5.71939502	      9.06221330	     21.31299780	      9.42850866	    -16.22084026	      0.00000000	    -11.20002958	      1.47058402	      4.54128239	     36.43526676	     14.54950399	     47.27167111	    128.20504756	    116.03399466	     57.02413300	     26.83339580	     75.25438838	    121.56498685	    104.16140848
      2.75000000	      1.68131557	     -3.96703438	      2.42658569	      0.57575605	      0.91577107	     -0.25913928	     26.89318046	     -6.06558024	      0.55414302	     43.72539224	    -16.59862823	    -35.00000000	      0.00000000	      8.44047469	      5.49756412	      9.02263260	     21.19679143	      9.23431498	    -15.84643671	      0.00000000	    -11.40063237	      1.60355435	      4.09610458	     37.07263233	     14.16099809	     49.39564074	    127.60675972	    116.23813531	     56.88072853	     26.55055665	     75.81610899	    121.06540166	    104.21976814
      2.76666670	      1.57642616	     -4.01549004	      2.57014462	      0.58020393	      0.91493078	     -0.26089542	     26.93948226	     -5.84648320	      0.20473827	     41.95983339	    -15.44421104	    -35.00000000	      0.00000000	      8.23504348	      5.45206639	      8.81831644	     20.82127395	      9.06411903	    -15.60249411	      0.00000000	    -11.36936268	      1.53107952	      3.75639710	     37.09651636	     13.89117369	     49.29804499	    127.25551664	    116.26908164	     56.85334121	     26.66190603	     75.86913254	    121.14245793	    104.21817713
      2.78333330	      2.03113760	     -4.22146750	      2.52020979	      0.57786733	      0.91960167	     -0.26269424	     26.30478912	     -5.44753722	     -0.34282640	     39.76753866	    -14.51601153	    -35.00000000	      0.00000000	      7.38502251	      5.24623397	      8.52785417	     20.26774967	      9.43489656	    -15.01666950	      0.00000000	    -11.92585013	      1.95041033	      3.26736886	     36.60886860	     13.80813829	     48.19611309	    125.80956568	    116.30284633	     56.58143048	     26.33080227	     76.17157112	    121.11901568	    104.19552240
      2.80000000	      2.10838138	     -4.32092828	      2.40715165	      0.57712720	      0.91742715	     -0.26230531	     26.56424210	     -5.08025423	     -0.37632800	     37.47238118	    -13.31805866	    -34.99950372	      0.00000000	      7.34032950	      5.12853566	      8.12647949	     20.38834749	      9.88963401	    -15.17107365	      0.00000000	    -12.05840139	      1.90258013	      2.96221878	     36.73876209	     13.41953176	     47.86438632	    125.52374591	    116.30212694	     56.97758600	     26.37106414	     76.15404374	    121.15384344	    104.18582587
      2.81666670	      2.67224139	     -4.39891146	      2.56466622	      0.57018048	      0.91907455	     -0.26305291	     26.15541978	     -4.92204699	     -0.80095887	     35.02580645	    -11.03430778	    -32.65183233	      0.00000000	      6.78153479	      5.03994088	      8.00315654	     20.25888330	     10.70623232	    -14.13413851	      0.00000000	    -12.92458201	      2.04309389	      2.77248565	     37.40501348	     13.28052002	     46.86338300	    124.81217479	    116.29299544	     58.18570360	     26.16886572	     76.11941568	    120.95758580	    104.09791797
